<svg preserveAspectRatio="none" width="100%" height="100%" overflow="visible" style="display: block;" viewBox="0 0 12.8333 9.33333" fill="none" xmlns="http://www.w3.org/2000/svg">
<path id="Vector" d="M10.5 2.33333L8.16667 4.66667H9.91667C9.91667 6.5975 8.3475 8.16667 6.41667 8.16667C5.8275 8.16667 5.2675 8.02083 4.78333 7.75833L3.93167 8.61C4.64917 9.065 5.50083 9.33333 6.41667 9.33333C8.995 9.33333 11.0833 7.245 11.0833 4.66667H12.8333L10.5 2.33333ZM2.91667 4.66667C2.91667 2.73583 4.48583 1.16667 6.41667 1.16667C7.00583 1.16667 7.56583 1.3125 8.05 1.575L8.90167 0.723333C8.18417 0.268333 7.3325 0 6.41667 0C3.83833 0 1.75 2.08833 1.75 4.66667H0L2.33333 7L4.66667 4.66667H2.91667Z" fill="var(--fill-0, #E3F1FD)"/>
</svg>
