<svg preserveAspectRatio="none" width="100%" height="100%" overflow="visible" style="display: block;" viewBox="0 0 140 32" fill="none" xmlns="http://www.w3.org/2000/svg">
<g id="supersportbet_logo_negative 1" clip-path="url(#clip0_3561_14365)">
<path id="Vector" d="M68.9455 15.3469C68.0894 15.4086 67.3259 15.7219 66.6555 16.2915C65.9037 16.9292 65.4152 17.7396 65.1891 18.7183L64.2702 22.681H61.147L63.4764 12.628H65.2397C66.1995 12.628 66.3846 13.2079 66.1612 14.1731C66.0979 14.4485 66.0718 14.5616 66.0718 14.5616H66.1032C67.1216 13.3684 68.2782 12.734 69.5712 12.646L68.946 15.3469M103.859 12.646C102.566 12.734 101.408 13.3678 100.391 14.5616H100.358C100.358 14.5616 100.384 14.4479 100.448 14.1731C100.672 13.2079 100.487 12.628 99.5256 12.628H97.7624L95.4341 22.681H98.5578L99.4761 18.7183C99.7033 17.7396 100.191 16.9292 100.942 16.2915C101.613 15.7219 102.377 15.4086 103.232 15.3469L103.858 12.646H103.859ZM39.9998 18.6213C39.9216 18.9565 39.7236 19.266 39.4081 19.5492C39.0915 19.833 38.784 19.975 38.4845 19.975C38.1642 19.975 37.962 19.8658 37.88 19.6462C37.7965 19.4266 37.8236 19.0201 37.962 18.4286L39.3049 12.6274H36.3419L34.9532 18.6206C34.5887 20.1933 34.5387 21.2952 34.8047 21.9271C35.0686 22.559 35.6709 22.8749 36.6116 22.8749C37.5523 22.8749 38.5297 22.3856 39.4182 21.405H39.4507L39.1878 22.6804H40.8223C41.622 22.6804 42.2366 22.1018 42.46 21.1353C42.6388 20.3635 44.4308 12.6267 44.4308 12.6267H41.3874L39.9998 18.62V18.6213ZM61.2721 18.7183C61.3976 18.3574 61.5009 18.0029 61.5817 17.6548C62.3873 14.175 61.429 12.4341 58.706 12.4341C57.3279 12.4341 56.1723 12.8855 55.2364 13.7884C54.3016 14.69 53.6391 15.9801 53.2523 17.6548C52.8602 19.3431 52.9698 20.6357 53.579 21.5315C54.1893 22.4261 55.2518 22.8749 56.7677 22.8749C57.7296 22.8749 58.7549 22.7131 59.8446 22.3914L60.4256 19.878C59.3263 20.201 58.4612 20.3615 57.8312 20.3615C57.1055 20.3615 56.6054 20.2389 56.3303 19.9936C56.0552 19.7496 55.9509 19.3244 56.0169 18.7183H61.2715H61.2721ZM57.164 15.257C57.4349 14.9873 57.7887 14.8518 58.2271 14.8518C58.6325 14.8518 58.9018 14.9931 59.0337 15.2763C59.1657 15.5601 59.1555 16.0308 59.0023 16.6884H56.4559C56.6565 16.0058 56.8927 15.5274 57.1646 15.257M52.6804 13.7319C52.3111 12.8361 51.6349 12.3885 50.6516 12.3885C49.6684 12.3885 48.7234 12.8778 47.845 13.8584H47.8125L48.0983 12.628H45.1506L41.8471 26.8891H43.6103C44.41 26.8891 45.0245 26.3092 45.2485 25.344C45.3566 24.8778 46.103 21.6491 46.103 21.6491H46.1355C46.6798 22.4357 47.3789 22.8293 48.2334 22.8293C49.173 22.8293 50.0472 22.3721 50.8575 21.4558C51.6679 20.5413 52.2632 19.2583 52.6458 17.6086C53.0379 15.9204 53.048 14.6277 52.6793 13.7319M47.2055 16.5452C47.2863 16.1965 47.504 15.8684 47.8588 15.5588C48.2132 15.25 48.5606 15.0952 48.9027 15.0952C49.8099 15.0952 50.0706 15.9332 49.6822 17.6086C49.4875 18.4466 49.2193 19.0753 48.8772 19.4927C48.534 19.9127 48.1547 20.122 47.7375 20.122C47.3959 20.122 47.1198 19.9672 46.908 19.6577C46.6963 19.3476 46.6314 19.0188 46.7117 18.672L47.2044 16.5452H47.2055ZM86.5737 13.7319C86.2044 12.8361 85.5282 12.3885 84.546 12.3885C83.5638 12.3885 82.6167 12.8778 81.7383 13.8584H81.7069L81.9905 12.628H79.044L75.7404 26.8891H77.5036C78.3033 26.8891 78.9179 26.3092 79.1413 25.344C79.2499 24.8778 79.9969 21.6491 79.9969 21.6491H80.0293C80.5726 22.4357 81.2717 22.8293 82.1262 22.8293C83.0669 22.8293 83.941 22.3721 84.7514 21.4558C85.5617 20.5413 86.1581 19.2583 86.5396 17.6086C86.9312 15.9204 86.9413 14.6277 86.5731 13.7319M81.0993 16.5452C81.1791 16.1965 81.3978 15.8684 81.7516 15.5588C82.107 15.25 82.4545 15.0952 82.7961 15.0952C83.7043 15.0952 83.9645 15.9332 83.5766 17.6086C83.3813 18.4466 83.1148 19.0753 82.7716 19.4927C82.4279 19.9127 82.049 20.122 81.633 20.122C81.2909 20.122 81.0142 19.9672 80.8035 19.6577C80.5907 19.3476 80.5257 19.0188 80.6066 18.672L81.0993 16.5452ZM87.1483 17.6548C86.7689 19.2923 86.8525 20.5709 87.3962 21.4924C87.9416 22.4145 88.8972 22.8756 90.2641 22.8756C91.6309 22.8756 92.8009 22.4152 93.7719 21.4924C94.744 20.5709 95.4187 19.2923 95.798 17.6548C96.1774 16.0186 96.0949 14.7382 95.5501 13.8173C95.0047 12.8958 94.0486 12.4341 92.6823 12.4341C91.3159 12.4341 90.1459 12.8958 89.1744 13.8173C88.2029 14.7382 87.5266 16.0186 87.1483 17.6548ZM90.1917 17.6548C90.4205 16.6621 90.6849 15.9628 90.9818 15.5569C91.2782 15.1504 91.6511 14.9481 92.1002 14.9481C92.5493 14.9481 92.828 15.1511 92.9366 15.5569C93.0451 15.9634 92.9845 16.6621 92.7546 17.6548C92.5253 18.6476 92.2614 19.3469 91.964 19.7528C91.6671 20.1593 91.2952 20.3615 90.8461 20.3615C90.3971 20.3615 90.1199 20.1593 90.0097 19.7528C89.9012 19.3463 89.9618 18.6476 90.1917 17.6548ZM107.495 22.5847L108.121 19.8773C107.617 20.0706 107.115 20.1676 106.613 20.1676C106.239 20.1676 106.021 20.0706 105.959 19.8773C105.897 19.6841 105.955 19.2005 106.135 18.4286L106.851 15.3341H109.174L109.801 12.6274H107.477C107.477 12.6274 107.81 11.1934 107.882 10.8865C108.105 9.92005 107.919 9.34018 106.96 9.34018H105.195L103.001 18.8146C102.649 20.3339 102.639 21.3916 102.971 21.9843C103.304 22.577 104.041 22.8743 105.184 22.8743C105.974 22.8743 106.745 22.7773 107.494 22.584M32.7515 8.33777C31.3197 8.33777 30.1439 8.69867 29.224 9.41981C28.3046 10.1435 27.6948 11.1723 27.4032 12.4347C27.1314 13.608 27.2154 14.5905 27.6576 15.3835C28.0976 16.1766 28.9675 16.8374 30.2657 17.3652C30.6243 17.52 30.8563 17.6953 30.9611 17.8873C31.0659 18.0806 31.0766 18.3586 30.9931 18.7195C30.8143 19.4927 30.2434 19.8793 29.2825 19.8793C28.1183 19.8793 27.1212 19.4606 26.2902 18.6226L25.5506 21.8122C26.3583 22.5218 27.4245 22.8769 28.7478 22.8769C31.7922 22.8769 33.6422 21.459 34.2993 18.6226C34.5823 17.398 34.5164 16.4193 34.0987 15.6841C33.681 14.9494 32.7866 14.3175 31.4139 13.7897C30.7579 13.5315 30.5046 13.0801 30.6541 12.4354C30.8244 11.7014 31.3474 11.3244 32.2269 11.3071C32.6829 11.2981 33.0723 11.3752 33.3974 11.4291C33.9338 11.5171 34.7643 11.4118 35.0532 10.1628C35.3113 9.04736 35.3767 8.74298 35.3767 8.74298C34.6393 8.47584 33.7651 8.33906 32.751 8.33906M75.5387 8.13164C74.108 8.13164 72.9322 8.49125 72.0122 9.21368C71.0923 9.93546 70.4831 10.9655 70.1905 12.228C69.9186 13.4018 70.0032 14.3837 70.4448 15.1768C70.8859 15.9692 71.7547 16.6287 73.053 17.1578C73.4116 17.3126 73.6435 17.4866 73.7494 17.6799C73.8532 17.8732 73.8638 18.1512 73.7803 18.5121C73.6015 19.2853 73.0317 19.6719 72.0702 19.6719C70.9061 19.6719 69.9085 19.2525 69.0774 18.4152L68.3389 21.6047C69.146 22.3137 70.2123 22.6682 71.5366 22.6682C74.58 22.6682 76.431 21.2503 77.087 18.4152C77.3706 17.1906 77.3041 16.2119 76.8865 15.4773C76.4699 14.7427 75.5744 14.1101 74.2017 13.5829C73.5462 13.3248 73.2924 12.8733 73.4419 12.2286C73.6116 11.4953 74.1357 11.1177 75.0157 11.1003C75.4712 11.0907 75.8606 11.1684 76.1852 11.2217C76.7226 11.3097 77.5515 11.2044 77.841 9.95537C78.0996 8.83994 78.1645 8.53556 78.1645 8.53556C77.4276 8.26714 76.5539 8.13164 75.5387 8.13164Z" fill="var(--fill-0, white)"/>
<g id="Group">
<path id="Vector_2" d="M116.754 14.9205C117.355 15.1857 117.789 15.6205 118.056 16.2241C118.322 16.8277 118.352 17.5547 118.146 18.4036C117.906 19.4118 117.582 20.2016 117.175 20.7719C116.767 21.3427 116.298 21.7666 115.768 22.0453C115.237 22.324 114.657 22.4967 114.026 22.5628C113.395 22.6296 112.741 22.6624 112.065 22.6624H108.224L111.645 8.15412H115.32C115.852 8.15412 116.395 8.19072 116.95 8.26393C117.504 8.33713 117.991 8.49639 118.411 8.74169C118.831 8.98764 119.137 9.35238 119.329 9.83657C119.52 10.3208 119.52 10.9745 119.327 11.7971C119.151 12.5266 118.833 13.1636 118.372 13.7075C117.911 14.2514 117.372 14.6566 116.754 14.9218L116.754 14.9205ZM113.544 16.5323H112.846L112.051 19.896H112.982C113.259 19.896 113.521 19.8696 113.769 19.8163C114.017 19.7637 114.24 19.6706 114.438 19.5376C114.636 19.4054 114.811 19.2191 114.961 18.9803C115.112 18.7414 115.228 18.4363 115.311 18.0645C115.391 17.7197 115.386 17.4442 115.296 17.2387C115.206 17.0332 115.068 16.8772 114.882 16.7712C114.696 16.6653 114.481 16.5991 114.24 16.5722C113.998 16.5458 113.766 16.5323 113.544 16.5323H113.544ZM115.035 10.9199H114.17L113.518 13.7062H114C114.21 13.7062 114.438 13.6934 114.685 13.6664C114.93 13.6401 115.165 13.5803 115.387 13.4872C115.61 13.3948 115.812 13.2522 115.992 13.0596C116.173 12.8676 116.303 12.6056 116.382 12.2736C116.449 11.9685 116.456 11.7264 116.402 11.5473C116.348 11.3681 116.256 11.232 116.124 11.1395C115.992 11.047 115.831 10.9873 115.639 10.9603C115.446 10.934 115.245 10.9205 115.035 10.9205V10.9199Z" fill="var(--fill-0, #F1C72F)"/>
<path id="Vector_3" d="M121.335 8.15412L117.914 22.6624C117.914 22.6624 124.453 22.663 124.814 22.6624C125.575 22.6624 126.149 22.1442 126.346 21.2933L126.79 19.4182H122.368H121.892L122.471 16.9504L126.832 16.9562L127.606 13.8057H123.217L123.82 11.2384H127.361C127.65 11.2384 127.942 11.1421 128.239 10.9501C128.536 10.7581 128.726 10.4691 128.809 10.0844L129.268 8.15412H121.335Z" fill="var(--fill-0, #F1C72F)"/>
<path id="Vector_4" d="M130.057 8.13421L129.315 11.239H132.624L129.926 22.6624H130.257C130.343 22.6624 131.716 22.663 132.072 22.6624C132.833 22.6624 133.407 22.1442 133.604 21.2933L134.035 19.4349L135.965 11.239H139.274L140 8.13421H130.057Z" fill="var(--fill-0, #F1C72F)"/>
</g>
<path id="Vector_5" d="M26.5993 2.64762C26.5993 1.18542 25.4282 0 23.9832 0C22.5381 0 21.367 1.18542 21.367 2.64762C21.367 4.10981 22.5381 5.29523 23.9832 5.29523C25.4282 5.29523 26.5993 4.10981 26.5993 2.64762Z" fill="var(--fill-0, #F1C72F)"/>
<path id="Vector_6" d="M18.7679 14.6495C16.4332 11.9095 8.62366 13.7557 5.69361 13.1829C4.27247 12.9048 3.33764 12.2646 3.33764 10.909C3.33764 5.23551 15.915 1.75694 17.7682 1.8096C18.3492 1.8263 19.0026 2.18783 19.292 2.49735C20.0241 3.28078 20.5439 4.36924 20.4551 5.21304C20.4551 6.07288 19.5522 6.56349 18.6498 6.56349C13.2701 6.56349 9.16637 8.26585 8.12512 9.20854C8.09214 9.24707 8.07245 9.2978 8.07245 9.35238C8.07245 9.47311 8.16928 9.57136 8.28847 9.57136C9.38557 9.57136 16.3673 7.96982 20.4695 10.27C22.2503 11.2692 23.1872 13.3594 23.1792 15.6064C23.1792 17.1822 22.212 18.6425 21.1952 19.6699C19.4176 21.468 15.6729 23.2718 11.5468 25.676C7.49782 28.034 3.44246 30.4742 1.23068 31.6693C0.701817 31.9551 0.150602 32.1528 0.0298243 31.8407C-0.0797801 31.5608 0.142621 31.1742 0.271912 30.9828C1.23973 29.5502 6.03413 26.3195 10.5306 23.2821C14.3284 20.7179 18.2204 18.3792 19.0584 16.698C19.1691 16.4733 19.2314 16.2151 19.2314 15.9467C19.2314 15.5184 19.0254 14.9494 18.7685 14.6476" fill="var(--fill-0, #DB1B13)"/>
</g>
<defs>
<clipPath id="clip0_3561_14365">
<rect width="140" height="32" fill="white"/>
</clipPath>
</defs>
</svg>
